<?xml version="1.0" encoding="utf-8"?>
<!-- Generator: Adobe Illustrator 18.0.0, SVG Export Plug-In . SVG Version: 6.00 Build 0)  -->
<!DOCTYPE svg PUBLIC "-//W3C//DTD SVG 1.1//EN" "http://www.w3.org/Graphics/SVG/1.1/DTD/svg11.dtd">
<svg version="1.1" id="Layer_1" xmlns="http://www.w3.org/2000/svg" xmlns:xlink="http://www.w3.org/1999/xlink" x="0px" y="0px"
	 viewBox="-2.2 -3.4 31.3 46.4" enable-background="new -2.2 -3.4 31.3 46.4" xml:space="preserve">
<g>
	<g transform="translate(1 1)">
		<g>
			<path id="a" fill="#139CD3" d="M12.5-2c-7.2,0-13,5.8-13,13c0,2,0.6,3.9,1.5,5.7c3.6,6.9,10.6,14.1,10.6,23
				c0,0.5,0.4,0.9,0.9,0.9s0.9-0.4,0.9-0.9c0-8.9,7-16.2,10.6-23c0.9-1.8,1.5-3.7,1.5-5.7C25.5,3.8,19.7-2,12.5-2L12.5-2z"/>
		</g>
		<path fill="none" stroke="#FFFFFF" d="M12.5-6.1c8.1,0,14.6,6.5,14.6,14.6c0,2.1-0.6,4.3-1.7,6.4c-1,2-1.1,2.2-4.7,7.6
			c-4.8,7.3-6.7,11.7-6.7,17c0,0.8-0.7,1.5-1.5,1.5S11,40.4,11,39.5c0-5.3-1.9-9.7-6.7-17c-3.5-5.4-3.6-5.6-4.7-7.6
			c-1.1-2.1-1.7-4.3-1.7-6.4C-2.1,0.5,4.4-6.1,12.5-6.1L12.5-6.1z"/>
	</g>
</g>
</svg>
