<?xml version="1.0" encoding="utf-8"?>
<!-- Generator: Adobe Illustrator 18.0.0, SVG Export Plug-In . SVG Version: 6.00 Build 0)  -->
<!DOCTYPE svg PUBLIC "-//W3C//DTD SVG 1.1//EN" "http://www.w3.org/Graphics/SVG/1.1/DTD/svg11.dtd">
<svg version="1.1" id="Layer_1" xmlns="http://www.w3.org/2000/svg" xmlns:xlink="http://www.w3.org/1999/xlink" x="0px" y="0px"
	 viewBox="0 0 27 43" enable-background="new 0 0 27 43" xml:space="preserve">
<g>
	<g transform="translate(1 1)">
		<g>
			<path id="a" fill="#139CD3" d="M12.5,0C5.6,0,0,5.6,0,12.5c0,1.9,0.5,3.7,1.4,5.5c3.4,6.6,10.2,13.6,10.2,22.2
				c0,0.5,0.4,0.8,0.8,0.8s0.8-0.4,0.8-0.8c0-8.6,6.8-15.6,10.2-22.2c0.9-1.7,1.4-3.6,1.4-5.5C25,5.6,19.4,0,12.5,0L12.5,0z"/>
		</g>
		<path fill="none" stroke="#FFFFFF" d="M12.5-0.5c7.2,0,13,5.8,13,13c0,1.9-0.5,3.8-1.5,5.7c-0.9,1.8-1,1.9-4.2,6.8
			c-4.3,6.6-6,10.4-6,15.2c0,0.7-0.6,1.3-1.3,1.3s-1.3-0.6-1.3-1.3c0-4.7-1.7-8.6-6-15.2C2,20.1,1.9,20,1,18.2
			c-1-1.9-1.5-3.8-1.5-5.7C-0.5,5.3,5.3-0.5,12.5-0.5L12.5-0.5z"/>
	</g>
</g>
</svg>
